<svg width="17" height="11" viewBox="0 0 17 11" fill="none" xmlns="http://www.w3.org/2000/svg">
<path d="M8.00977 10.7969C12.7441 10.7969 16.0137 6.9707 16.0137 5.77539C16.0137 4.57422 12.7383 0.753906 8.00977 0.753906C3.33984 0.753906 0 4.57422 0 5.77539C0 6.9707 3.33398 10.7969 8.00977 10.7969ZM8.00977 9.87109C4.14844 9.87109 1.02539 6.60156 1.02539 5.77539C1.02539 5.07812 4.14844 1.67969 8.00977 1.67969C11.8535 1.67969 14.9883 5.07812 14.9883 5.77539C14.9883 6.60156 11.8535 9.87109 8.00977 9.87109ZM8.00977 9.05664C9.83203 9.05664 11.2969 7.5625 11.2969 5.77539C11.2969 3.94141 9.83203 2.49414 8.00977 2.49414C6.17578 2.49414 4.70508 3.94141 4.71094 5.77539C4.72266 7.5625 6.17578 9.05664 8.00977 9.05664ZM8.00977 6.86523C7.40039 6.86523 6.9082 6.37305 6.9082 5.77539C6.9082 5.17188 7.40039 4.68555 8.00977 4.68555C8.61328 4.68555 9.10547 5.17188 9.10547 5.77539C9.10547 6.37305 8.61328 6.86523 8.00977 6.86523Z" fill="#253274" fill-opacity="0.6"/>
<line x1="3.62835" y1="10.6655" x2="12.6284" y2="0.665518" stroke="#7C84AC"/>
</svg>
